<?xml version="1.0" standalone="no"?>
<!DOCTYPE svg PUBLIC "-//W3C//DTD SVG 20010904//EN"
 "http://www.w3.org/TR/2001/REC-SVG-20010904/DTD/svg10.dtd">
<svg version="1.0" xmlns="http://www.w3.org/2000/svg"
 width="150.000000pt" height="150.000000pt" viewBox="0 0 150.000000 150.000000"
 preserveAspectRatio="xMidYMid meet">
<metadata>
Created by potrace 1.11, written by Peter Selinger 2001-2013
</metadata>
<g transform="translate(0.000000,150.000000) scale(0.100000,-0.100000)"
fill="#000000" stroke="none">
<path d="M39 1421 c-24 -19 -24 -20 -27 -263 -2 -264 2 -291 48 -296 52 -5 55
3 60 202 l5 184 110 -169 c123 -193 146 -219 186 -219 59 0 60 5 57 298 l-3
267 -27 9 c-22 8 -32 6 -47 -9 -19 -16 -21 -32 -23 -199 l-3 -181 -114 175
c-62 96 -123 185 -134 198 -25 27 -57 28 -88 3z"/>
<path d="M617 1422 c-15 -16 -17 -50 -17 -269 0 -229 1 -251 18 -266 16 -14
44 -17 188 -17 180 0 194 3 194 47 0 35 -30 43 -164 43 l-126 0 0 223 c0 204
-2 225 -18 240 -24 22 -55 21 -75 -1z"/>
<path d="M1091 1411 c-20 -20 -21 -31 -21 -269 0 -228 2 -250 18 -265 10 -10
27 -17 38 -17 42 0 49 15 54 122 l5 103 100 5 c158 8 210 50 210 170 0 78 -17
110 -76 145 -29 17 -56 21 -171 23 -127 4 -137 3 -157 -17z m218 -70 c52 -10
71 -31 71 -79 0 -68 -37 -92 -141 -92 l-59 0 0 83 c0 46 3 87 7 90 9 9 68 8
122 -2z"/>
<path d="M227 746 c-182 -65 -291 -361 -174 -474 69 -67 166 -81 256 -36 46
24 73 49 177 173 2 2 10 1 19 -3 14 -5 13 -10 -5 -45 -24 -48 -26 -94 -4 -115
19 -20 70 -20 104 -1 22 12 27 11 43 -2 27 -26 73 -20 107 12 16 16 31 27 32
24 2 -2 8 -13 14 -24 9 -15 21 -20 50 -19 22 0 47 4 56 8 15 7 16 4 8 -26 -18
-59 -12 -107 15 -133 29 -30 47 -31 86 -8 31 19 79 102 79 138 0 15 11 27 36
39 35 16 37 16 51 -4 10 -15 25 -20 57 -20 36 0 51 7 90 41 45 40 59 69 33 69
-7 0 -26 -13 -42 -30 -31 -32 -69 -40 -78 -15 -4 8 4 54 16 102 l22 88 43 9
c31 8 42 15 42 29 0 16 -6 18 -30 15 -35 -5 -34 -8 -13 36 13 29 14 38 3 51
-23 28 -46 17 -70 -35 -13 -28 -29 -50 -35 -50 -7 0 -19 -7 -26 -16 -11 -14
-11 -18 3 -28 15 -11 15 -18 -4 -86 -30 -111 -82 -157 -129 -114 -20 18 -46
13 -56 -12 -4 -11 2 -23 17 -34 19 -14 21 -22 15 -51 -11 -49 -33 -89 -50 -89
-21 0 -19 62 4 172 17 82 22 91 72 146 58 63 97 131 106 187 7 44 -9 65 -52
65 -74 0 -135 -108 -175 -312 -12 -60 -45 -96 -77 -84 -22 9 -10 78 23 134 26
44 26 72 1 72 -8 0 -20 -6 -26 -14 -11 -13 -15 -12 -32 5 -10 10 -30 19 -44
19 -38 0 -104 -66 -137 -137 -27 -60 -50 -83 -82 -83 -23 0 -20 22 11 85 32
64 25 88 -25 93 -28 3 -30 5 -20 26 27 61 -56 93 -107 41 -31 -30 -32 -62 -4
-91 l22 -23 -52 -60 c-62 -72 -116 -97 -186 -87 -93 14 -138 90 -115 196 25
113 98 218 167 241 52 17 63 7 60 -48 -2 -45 0 -48 25 -51 32 -4 58 29 58 74
0 24 -8 39 -31 58 -35 30 -81 33 -142 12z m893 -130 c0 -8 -4 -26 -10 -41 -13
-34 -80 -138 -86 -133 -5 6 27 99 52 151 18 37 44 50 44 23z m-640 -131 c0
-26 -14 -33 -25 -15 -9 14 1 40 15 40 5 0 10 -11 10 -25z m317 -52 c-14 -71
-22 -91 -46 -125 -14 -21 -32 -38 -38 -38 -32 0 4 119 49 168 29 30 41 28 35
-5z"/>
</g>
</svg>
