<?xml version="1.0" standalone="no"?>
<!DOCTYPE svg PUBLIC "-//W3C//DTD SVG 20010904//EN"
 "http://www.w3.org/TR/2001/REC-SVG-20010904/DTD/svg10.dtd">
<svg version="1.0" xmlns="http://www.w3.org/2000/svg"
 width="900.000000pt" height="219.000000pt" viewBox="0 0 900.000000 219.000000"
 preserveAspectRatio="xMidYMid meet">

<g transform="translate(0.000000,219.000000) scale(0.100000,-0.100000)"
fill="#000000" stroke="none">
<path d="M165 2181 c-76 -19 -126 -64 -146 -130 -7 -24 -9 -284 -7 -788 3
-741 3 -752 24 -779 38 -51 68 -67 129 -67 61 0 91 16 129 67 21 27 21 40 24
582 1 305 6 554 10 554 4 -1 165 -244 357 -541 193 -297 369 -560 393 -585 54
-57 100 -77 178 -77 78 -1 124 26 156 91 l23 47 0 755 0 755 -23 42 c-27 51
-71 76 -133 77 -59 0 -106 -28 -133 -79 -20 -39 -21 -54 -24 -590 l-3 -549
-182 274 c-100 151 -274 414 -386 583 -150 228 -213 314 -240 332 -41 26 -101
37 -146 26z"/>
<path d="M1907 2176 c-49 -18 -64 -31 -90 -80 -22 -41 -22 -44 -25 -736 -2
-419 1 -719 7 -757 11 -74 36 -113 88 -139 36 -18 69 -19 528 -19 460 0 492 1
528 19 46 23 67 60 67 120 0 63 -42 110 -111 125 -30 7 -191 11 -409 11 l-360
0 0 668 c0 629 -2 669 -19 708 -32 71 -126 108 -204 80z"/>
<path d="M3378 2150 c-57 -10 -102 -40 -126 -83 -16 -30 -17 -89 -17 -782 0
-692 1 -752 17 -782 67 -122 241 -116 299 11 17 37 19 70 19 317 l0 276 238 6
c275 7 349 19 468 77 172 84 254 229 254 450 0 167 -43 282 -141 375 -66 63
-135 98 -236 121 -79 18 -693 29 -775 14z m604 -261 c108 -23 166 -72 194
-165 43 -143 -16 -275 -146 -326 -49 -19 -78 -22 -257 -26 l-203 -4 0 266 0
266 180 0 c98 0 203 -5 232 -11z"/>
<path d="M5631 2129 c-29 -5 -85 -20 -122 -33 -213 -74 -447 -307 -565 -561
-73 -158 -124 -365 -124 -499 1 -322 236 -557 575 -573 289 -14 481 101 785
470 100 120 107 127 142 127 49 0 68 -8 68 -30 0 -10 -25 -70 -56 -134 -68
-142 -80 -215 -45 -283 38 -75 110 -110 208 -100 64 7 123 32 188 82 27 21 51
33 53 27 2 -6 13 -26 25 -44 80 -119 292 -76 404 82 15 22 30 40 33 40 3 0 11
-24 18 -53 23 -100 77 -141 177 -134 59 4 148 39 188 75 9 8 19 13 22 10 3 -3
-6 -59 -20 -126 -51 -246 -25 -379 88 -439 48 -26 151 -23 204 5 61 32 136
112 176 190 38 72 77 197 77 247 0 59 9 70 75 99 35 15 85 43 111 61 26 19 51
32 55 30 4 -3 10 -17 14 -32 30 -121 197 -161 345 -82 61 32 201 154 239 208
29 41 34 67 16 85 -30 29 -55 18 -143 -68 -48 -45 -102 -90 -119 -100 -65 -33
-125 -13 -142 49 -14 50 38 304 105 516 20 63 29 80 47 83 12 2 60 9 106 15
100 13 131 30 131 71 0 34 -34 74 -55 66 -33 -12 -135 -29 -141 -23 -4 3 16
47 45 96 28 49 51 98 51 110 0 53 -61 121 -107 121 -56 0 -85 -39 -159 -213
l-43 -102 -45 -5 c-32 -4 -55 -15 -76 -35 -58 -55 -49 -88 26 -100 32 -4 44
-10 41 -20 -16 -41 -87 -303 -102 -375 -17 -82 -20 -87 -79 -148 -79 -81 -140
-122 -183 -122 -27 0 -45 10 -87 50 -60 57 -103 66 -149 30 -65 -51 -49 -128
33 -163 l51 -22 -7 -50 c-26 -195 -103 -355 -170 -355 -84 0 -72 141 63 764 4
18 37 61 86 110 244 248 392 501 411 703 11 116 -38 173 -149 173 -84 0 -148
-33 -225 -118 -124 -135 -215 -367 -299 -765 -39 -187 -52 -232 -72 -253 -37
-40 -139 -104 -165 -104 -53 0 -68 85 -40 241 15 84 32 119 105 229 38 55 51
84 51 111 0 83 -81 92 -157 17 -23 -23 -44 -40 -45 -37 -2 2 -12 22 -23 44
-39 78 -140 98 -241 48 -145 -71 -291 -260 -353 -458 -19 -58 -31 -78 -73
-117 -80 -74 -147 -97 -182 -62 -30 30 -19 82 48 224 81 169 96 221 76 257
-35 62 -94 80 -198 59 l-43 -8 26 52 c31 61 36 147 11 185 -55 84 -211 81
-309 -5 -117 -104 -115 -244 5 -321 l49 -31 -28 -37 c-54 -72 -195 -231 -260
-291 -163 -153 -391 -190 -588 -96 -215 101 -280 312 -196 631 97 368 318 643
551 685 68 12 107 2 134 -33 l20 -27 -22 -68 c-29 -91 -29 -136 2 -167 32 -32
69 -40 116 -26 85 25 132 101 133 211 1 138 -84 231 -238 259 -66 12 -88 12
-164 0z m2600 -393 c30 -66 -85 -310 -253 -539 -28 -37 -52 -66 -55 -63 -7 7
75 277 118 386 77 199 157 290 190 216z m-1967 -376 c21 -8 26 -16 26 -44 0
-33 -27 -106 -39 -106 -3 0 -21 9 -38 20 -64 39 -52 114 24 139 1 1 13 -3 27
-9z m994 -152 c19 -19 15 -44 -29 -151 -30 -74 -39 -109 -35 -132 5 -26 -2
-44 -35 -96 -103 -160 -168 -219 -204 -189 -58 48 57 397 169 513 61 63 107
82 134 55z"/>
</g>
</svg>
